<svg width="395.99999999999994" height="225.09473684210525" viewBox="0 0 190 108" class="looka-1j8o68f"><defs id="SvgjsDefs1011"></defs><g id="SvgjsG1012" featurekey="nameGroupContainer" transform="matrix(1,0,0,1,0,0)" fill="#ffffff"><rect xmlns="http://www.w3.org/2000/svg" width="190" height="108" rx="10" ry="10" fill="none"></rect>
</g><g id="SvgjsG1013" featurekey="nameFeature-0" transform="matrix(4.883951865470735,0,0,4.883951865470735,24.960127375659606,-9.283850762341196)" fill="#283149"><path d="M1.2207 6.016 l6.8945 0 l0 2.2852 c0 0.032549 -0.016279 0.048828 -0.048828 0.048828 l-4.0918 0 l0 3.0371 l3.6719 0 l0 0.019531 c0 0.091143 -0.016279 0.58594 -0.048828 1.4844 c-0.013018 0 -0.019531 0.0097656 -0.019531 0.029297 l0.16602 0 l0 0.70313 l-3.1836 0 l0 2.8711 l-0.84961 0 l0 0.2832 l0.84961 0 l0 0.86914 l3.6035 0 l0 0.33203 l-0.2832 0 l0 1.7188 l-4.3066 0 l0 0.30273 l-2.0508 0 l0 -5.0098 l-0.30273 0 l0 -1.7676 l-2.2363 0 l0 -0.30273 l2.2363 0 l0 -6.9043 z M1.2402 12.9199 l0 0.30273 l1.1523 0 l0 -0.30273 l-1.1523 0 z M4.7754 16.9434 l0.16602 -0.0000095367 l0 0.23438 l0.019531 0 c0 -0.045576 0.071611 -0.1237 0.21484 -0.23438 l0.16602 0 l-0.23438 0.25391 l0.25391 0.38086 l-0.16602 0 c-0.1237 -0.17578 -0.19206 -0.26367 -0.20508 -0.26367 c-0.032549 0.0065136 -0.048828 0.022793 -0.048828 0.048838 l0 0.21484 l-0.16602 0 l0 -0.63477 z M5.5957 16.9434 l0.33203 0 c0.10417 0 0.17578 0.061846 0.21484 0.18555 c0 0.019531 -0.032549 0.074873 -0.097656 0.16602 c0.045576 0 0.078125 0.094404 0.097656 0.2832 l-0.11719 0 c-0.032549 0 -0.058594 -0.078125 -0.078125 -0.23438 l-0.18555 0 l0 0.23438 l-0.16602 0 l0 -0.63477 z M6.6602 16.9434 l0.0879 -0.0000095367 c0.14323 0 0.23112 0.094404 0.26367 0.2832 l0 0.087891 c0 0.05208 -0.022783 0.10742 -0.068359 0.16602 l0 0.029297 c0.045576 0 0.068359 0.013018 0.068359 0.039063 s-0.022783 0.05209 -0.068359 0.078135 c-0.026045 0 -0.05209 -0.026045 -0.078135 -0.078125 l-0.11719 0.029297 l-0.087891 0 c-0.15625 0 -0.24414 -0.11719 -0.26367 -0.35156 c0.045576 -0.1888 0.13347 -0.2832 0.26367 -0.2832 z M6.5625 17.2266 l0 0.068369 c0 0.11067 0.055342 0.16602 0.16602 0.16602 l0.019531 0 l0 -0.029297 l-0.039063 0 l0 -0.019531 c0 -0.026045 0.022783 -0.048828 0.068359 -0.068359 l0.068359 0.039063 c0 -0.0065136 0.0065136 -0.05209 0.019531 -0.13673 c-0.0065136 -0.1237 -0.068359 -0.18555 -0.18555 -0.18555 c-0.078125 0.019531 -0.11719 0.074873 -0.11719 0.16602 z M5.7617 17.0801 l0 0.14648 l0.16602 0 c0.032549 0 0.048828 -0.016279 0.048828 -0.048828 l0 -0.048828 c0 -0.032549 -0.016279 -0.048828 -0.048828 -0.048828 l-0.16602 0 z M8.0273 18.1152 l0.13672 0 l0 0.029297 c0 0.27995 -0.022783 0.41992 -0.068359 0.41992 s-0.068359 -0.10091 -0.068359 -0.30273 l0 -0.14648 z M8.0273 18.584 l0.13672 0 l0 0.14648 l-0.13672 0 l0 -0.14648 z M8.876949375 5.996 l3.125 -0.0000095367 c0.34505 1.2565 1.0547 3.7728 2.1289 7.5488 l1.2305 0 c0.032549 0 0.16602 -0.45247 0.40039 -1.3574 c0.52083 -1.7773 1.1035 -3.8411 1.748 -6.1914 l2.8906 0 l0 9.082 l0.16602 0 l0 1.6602 l-0.87891 0 l0 0.30273 l0.87891 0 l0 2.959 l-2.4609 0 l0 -1.084 l0.30273 0 l0 -3.3594 l-0.51758 0 l0 -1.6797 l-0.3125 0 l-0.019531 0.087891 l-0.26367 0 l0 2.3926 l-0.84961 0 l0 1.1133 l-0.73242 0 l0 1.8945 l-1.7285 0 l0 -1.2109 l-1.0645 0 l0 -1.6602 l-0.63477 0 l0 -1.7188 l-0.36133 0 c-0.013018 -0.097656 -0.091143 -0.39714 -0.23438 -0.89844 l2.4805 0 l-0.068359 -0.33203 l-2.4805 0 l0.068359 0.33203 l-0.33203 0 l0 2.168 l0.16602 0 l0 2.3926 l-0.61523 0 l0 0.42969 l0.61523 0 l0 0.63477 l-2.2266 0 l0 -2.8809 l-0.41992 0 l0 -10.625 z M11.337909375 12.5488 l0 0.16602 c0 0.14323 0.0065136 0.41992 0.019531 0.83008 l0.23438 0 c-0.15625 -0.63151 -0.23438 -0.96354 -0.23438 -0.99609 l-0.019531 0 z M17.890609375 12.5684 l-0.21484 0.97656 l0.21484 0 c0.013018 -0.40364 0.019531 -0.69661 0.019531 -0.87891 l0 -0.097656 l-0.019531 0 z M10.556609375 13.5449 l0 0.33203 l0.78125 0 l0 -0.33203 l-0.78125 0 z M15.400409374999999 13.5449 l-0.068359 0.33203 l2.2266 0 c0.065107 -0.17578 0.097656 -0.28646 0.097656 -0.33203 l-2.2559 0 z M17.910109374999998 13.5449 l0 0.33203 l1.709 0 l0 -0.33203 l-1.709 0 z M14.218709375 13.876999999999999 c0.11067 0.5013 0.18229 0.75195 0.21484 0.75195 l0.2832 0 l0 1.25 l0.44922 0 l0 -1.9336 l0.11719 0 l0 -0.068359 l-1.0645 0 z M20.566109375 16.7383 l1.416 0 l0 0.30273 l-1.416 0 l0 -0.30273 z M20.703109375 17.1582 l0.11719 -0.0000095367 l0 0.21484 l0.19531 0 l0 -0.16602 c0 -0.032549 0.016279 -0.048828 0.048828 -0.048828 l0.039063 0 c0.032549 0.0065136 0.048828 0.022793 0.048828 0.048838 l0 0.44922 c0 0.032549 -0.016279 0.048828 -0.048828 0.048828 l-0.087891 0 l0 -0.21484 l-0.19531 0 l0 0.21484 l-0.11719 0 l0 -0.54688 z M20.703109375 17.8711 l0.33203 -0.0000095367 c0.032549 0.0065136 0.048828 0.022793 0.048828 0.048838 l0 0.068359 l-0.26367 0 l0 0.097656 l0.21484 0 l0 0.11719 l-0.21484 0 l0 0.21484 l-0.11719 0 l0 -0.54688 z M20.732109375 18.584 l0.33202 0 c0.026045 0 0.039063 0.013018 0.039063 0.039063 l0 0.048828 l-0.25391 0.33203 l0.25391 0 l0 0.11719 l-0.40039 0 c-0.032549 0 -0.048828 -0.022783 -0.048828 -0.068359 c0.05208 -0.078125 0.13997 -0.19531 0.26367 -0.35156 l-0.23438 0 l0 -0.078125 c0.0065136 -0.026045 0.022793 -0.039063 0.048838 -0.039063 z M20.703109375 19.28708 l0.11719 -0.0000095367 l0 0.3125 l0.029297 0.11719 l0.11719 0 c0.032549 0 0.048828 -0.016279 0.048828 -0.048828 l0 -0.33203 c0 -0.032549 0.016279 -0.048828 0.048828 -0.048828 l0.039063 0 c0.032549 0.0065136 0.048828 0.022793 0.048828 0.048838 l0 0.2832 c0 0.14323 -0.071611 0.21484 -0.21484 0.21484 l-0.039063 0 c-0.091143 0 -0.15625 -0.039063 -0.19531 -0.11719 l0 -0.42969 z M8.662109375 19.6191 l2.5098 0 l0 0.21484 l-2.5098 0 l0 -0.21484 z M21.494136875 6.006 l8.2031 0 l0 2.334 l-2.7148 0 l0 9.6777 l1.2305 0 l0 0.2832 l-1.2305 0 l0 1.0645 l-0.73242 0 l0 0.37109 l0.51758 0 l0 0.26367 l-2.4902 0 c-0.032549 0 -0.048828 -0.016279 -0.048828 -0.048828 l0 -11.611 l-2.7344 0 l0 -2.334 z M26.015596875 18.0176 l0 0.2832 l0.94727 0 l0 -0.2832 l-0.94727 0 z"></path></g></svg>